<?xml version="1.0" encoding="UTF-8" standalone="no"?>
<svg width="27px" height="26px" viewBox="0 0 27 26" version="1.1" xmlns="http://www.w3.org/2000/svg" xmlns:xlink="http://www.w3.org/1999/xlink" xmlns:sketch="http://www.bohemiancoding.com/sketch/ns">
    <!-- Generator: Sketch 3.4.2 (15855) - http://www.bohemiancoding.com/sketch -->
    <title>ThumbsDown</title>
    <desc>Created with Sketch.</desc>
    <defs></defs>
    <g id="Welcome" stroke="none" stroke-width="1" fill="none" fill-rule="evenodd" sketch:type="MSPage">
        <g id="NowPlaying" sketch:type="MSArtboardGroup" transform="translate(-1245.000000, -57.000000)" fill="#FFFFFF">
            <g id="Rating" sketch:type="MSLayerGroup" transform="translate(1245.000000, 57.000000)">
                <g id="ThumbsDown" transform="translate(13.500000, 13.000000) scale(-1, -1) translate(-13.500000, -13.000000) translate(0.000000, 0.500000)" sketch:type="MSShapeGroup">
                    <path d="M0.067745098,24.5065686 C0.067745098,24.7368627 0.254411765,24.9234314 0.484607843,24.9234314 L4.23882353,24.9234314 C4.46901961,24.9234314 4.65568627,24.7368627 4.65568627,24.5065686 L4.65568627,12.7110784 C4.65568627,12.4808824 4.46901961,12.2942157 4.23882353,12.2942157 L0.484607843,12.2942157 C0.254411765,12.2942157 0.067745098,12.4808824 0.067745098,12.7110784 L0.067745098,24.5065686 L0.067745098,24.5065686 Z" id="Shape"></path>
                    <path d="M26.1684314,14.2486275 C25.3247059,12.8038235 27.3432353,12.1083333 25.6019608,10.7577451 C23.4083333,9.05627451 23.5504902,9.32176471 18.8058824,9.26813725 C18.0558824,9.25970588 17.1295098,9.34382353 17.3712745,7.78637255 C18.3403922,1.54098039 16.7428431,0.381470588 15.6833333,0.0899019608 C13.4526471,-0.523823529 16.1526471,2.03637255 13.3596078,6.83088235 C13.1132353,7.25372549 12.3707843,7.73980392 11.87,8.55313725 C10.8362745,10.2320588 9.84245098,12.8821569 8.98411765,12.8821569 L5.44578431,12.8821569 L5.44578431,23.5198039 C7.45147059,23.3612745 10.3071569,23.135098 11.0204902,23.0763725 C12.1493137,22.9833333 13.0802941,23.7597059 14.7561765,23.7597059 C16.2457843,23.7597059 17.1898039,24.6833333 22.2653922,23.904902 C22.982451,23.795 24.3140196,22.4172549 24.0491176,21.2994118 C23.8448039,20.4362745 26.2812745,19.7581373 25.7554902,18.1808824 C25.137549,16.3272549 27.3521569,16.2755882 26.1684314,14.2486275 L26.1684314,14.2486275 Z" id="Shape"></path>
                </g>
            </g>
        </g>
    </g>
</svg>